<?xml version="1.0" encoding="utf-8"?>
<!-- Generator: Adobe Illustrator 23.0.4, SVG Export Plug-In . SVG Version: 6.00 Build 0)  -->
<svg version="1.1" id="Warstwa_1" xmlns="http://www.w3.org/2000/svg" xmlns:xlink="http://www.w3.org/1999/xlink" x="0px" y="0px"
	 viewBox="0 0 595.3 174.4" style="enable-background:new 0 0 595.3 174.4;" xml:space="preserve">
<style type="text/css">
	.st0{fill:#DDBF8B;}
	.st1{fill:#C3C2C1;}
</style>
<g>
	<path class="st0" d="M96.7,27.4c-2.2,0.1-4.6,0.1-7,0.1c-2.4,0-4.7,0-6.9-0.1c-2.2-0.1-4-0.1-5.4-0.2v2c2.2,0.1,3.9,0.3,5,0.7
		c1.1,0.4,1.9,1.2,2.3,2.3c0.4,1.1,0.6,2.9,0.6,5.3v42.5c-0.3,0.3-0.6,0.5-0.9,0.5c-0.5,0-0.9-0.1-1.4-0.3c-0.5-0.2-1.1-0.6-1.9-1
		c-1.3-0.9-2.8-1.7-4.5-2.5c-1.7-0.7-4.2-1.1-7.4-1.1c-3.2,0-6.2,0.6-9,1.8c-2.8,1.2-5.1,3.1-6.8,5.6c-1.7,2.5-2.6,5.7-2.6,9.5
		c0,3.6,0.8,6.8,2.4,9.3c1.6,2.6,3.7,4.8,6.4,6.8c2.7,2,5.5,3.9,8.6,5.8c4.6,2.7,8.2,5.4,11,8c2.8,2.6,4.2,5.9,4.2,9.9
		c0,4.6-1.3,7.9-4,9.9c-2.6,2.1-5.6,3.1-8.7,3.1c-4.2,0-7.5-1-10-3.1c-2.5-2.1-4.4-4.8-5.6-8.2c-1.2-3.4-1.9-7-2.2-10.9h-2.2
		c0,4.6,0,8.3,0,11.3c0,3-0.1,5.4-0.1,7.3c0,1.9-0.1,3.5-0.2,4.8h2.2c0.4-2.9,1.1-4.3,2.1-4.3c0.8,0,1.9,0.5,3.3,1.4
		c1.4,0.8,3.2,1.7,5.2,2.4c2,0.8,4.8,1.2,8.2,1.2c3.8,0,7.2-0.7,10.4-2.1c3.1-1.4,5.6-3.4,7.5-6.2c1.9-2.7,2.8-6.2,2.8-10.4
		c0-3.5-0.8-6.5-2.3-9c-1.5-2.5-3.6-4.7-6.3-6.8c-0.3-0.2-0.5-0.4-0.8-0.6c1.1-0.6,2-1.3,3-2c3.5-3,5.9-6.8,7-11.4
		c0.5-2.2,0.9-4.8,1.1-7.7c0.2-2.9,0.4-6,0.4-9.1c0.1-3.1,0.1-6,0.1-8.7V37.6c0-2.4,0.2-4.2,0.6-5.3c0.4-1.1,1.2-1.9,2.3-2.3
		c1.1-0.4,2.8-0.7,5-0.7v-2C100.8,27.3,99,27.4,96.7,27.4z M83.8,104c-0.9,2.8-2.2,4.9-3.8,6.3c-1.7-1.2-3.5-2.4-5.5-3.6
		c-2.9-1.8-5.7-3.5-8.2-5.1c-2.5-1.6-4.5-3.4-6-5.4c-1.5-2-2.2-4.4-2.2-7.4c0-3.4,1.1-6.1,3.4-8.2c2.2-2.1,5.1-3.1,8.6-3.1
		c3.6,0,6.6,0.9,8.8,2.7c2.2,1.8,4,4.2,5.1,7c0.5,1.3,1,2.7,1.3,4.1v0C85.3,96.6,84.8,100.8,83.8,104z"/>
	<rect x="125.6" y="97.6" class="st0" width="396.9" height="0.6"/>
	<g>
		<path class="st1" d="M138.9,114.6l-8.5,8.9l9.3,8.9h-1.7l-9.3-8.9v8.9h-1.4v-17.7h1.4v8.8l8.5-8.8H138.9z"/>
		<path class="st1" d="M153.3,114.4l8.2,17.9h-1.4l-2.8-6.1h-8.7l-2.8,6.1h-1.4l8.2-17.9H153.3z M156.8,125l-3.8-8.4l-3.8,8.4H156.8
			z"/>
		<path class="st1" d="M184.8,114.6v17.7h-1.1l-13.5-15.5v15.5h-1.4v-17.7h1.2l13.5,15.5v-15.5H184.8z"/>
		<path class="st1" d="M208.9,115.8v1.5c-2.1-1.1-4.3-1.7-6.3-1.7c-2.2,0-4,0.7-5.5,2.2s-2.2,3.4-2.2,5.6c0,2.3,0.7,4.1,2.2,5.6
			s3.4,2.2,5.7,2.2c1.9,0,4-0.6,6.3-1.8v1.4c-2.1,1.1-4.2,1.7-6.3,1.7c-2.7,0-4.9-0.9-6.7-2.6c-1.8-1.7-2.7-3.9-2.7-6.5
			c0-2.6,0.9-4.8,2.8-6.5s4-2.6,6.6-2.6C204.7,114.3,206.7,114.8,208.9,115.8z"/>
		<path class="st1" d="M226.6,114.6v1.1h-8.3v7.1h8.1v1.2h-8.1v7.2h8.5v1.1H217v-17.7H226.6z"/>
		<path class="st1" d="M236.2,114.6v16.6h8.8v1.1h-10.1v-17.7H236.2z"/>
		<path class="st1" d="M259.3,114.4l8.2,17.9H266l-2.8-6.1h-8.7l-2.8,6.1h-1.4l8.2-17.9H259.3z M262.7,125l-3.8-8.4l-3.8,8.4H262.7z
			"/>
		<path class="st1" d="M274.8,114.6h4.5c1.9,0,3.4,0.4,4.4,1.2c1,0.8,1.5,1.9,1.5,3.3c0,2-1.1,3.5-3.4,4.3c0.6,0.3,1.4,1.2,2.4,2.7
			l4,6.1h-1.6l-3.1-4.9c-1-1.6-1.8-2.6-2.4-3s-1.4-0.6-2.5-0.6h-2.4v8.5h-1.4V114.6z M276.2,115.7v6.9h2.9c1.5,0,2.6-0.3,3.4-0.9
			c0.8-0.6,1.2-1.5,1.2-2.6c0-1.1-0.4-1.9-1.2-2.6s-2-0.9-3.5-0.9H276.2z"/>
		<path class="st1" d="M296.3,114.6v17.7h-1.4v-17.7H296.3z"/>
		<path class="st1" d="M312.5,114.4l8.2,17.9h-1.4l-2.8-6.1h-8.7l-2.8,6.1h-1.4l8.2-17.9H312.5z M316,125l-3.8-8.4l-3.8,8.4H316z"/>
		<path class="st1" d="M345.9,114.4l8.2,17.9h-1.4l-2.8-6.1h-8.7l-2.8,6.1H337l8.2-17.9H345.9z M349.4,125l-3.8-8.4l-3.8,8.4H349.4z
			"/>
		<path class="st1" d="M361.5,114.6h6.2c3.1,0,5.5,0.8,7.2,2.5c1.7,1.7,2.5,3.8,2.5,6.4c0,2.6-0.8,4.7-2.5,6.4c-1.6,1.7-4,2.5-7,2.5
			h-6.4V114.6z M362.8,115.7v15.5h5c2.3,0,4.2-0.7,5.7-2.1c1.5-1.4,2.3-3.3,2.3-5.6c0-2.3-0.8-4.1-2.3-5.6s-3.5-2.2-5.9-2.2H362.8z"
			/>
		<path class="st1" d="M396.2,117.5l-5.9,15h-0.4l-7.1-17.9h1.4l5.9,14.7l6-14.7h0.4l5.9,14.7l5.9-14.7h1.4l-7.2,17.9h-0.3
			L396.2,117.5z"/>
		<path class="st1" d="M424.5,114.3c2.6,0,4.8,0.9,6.7,2.6c1.8,1.8,2.7,3.9,2.7,6.5c0,2.5-0.9,4.7-2.7,6.4c-1.8,1.8-4,2.6-6.7,2.6
			c-2.6,0-4.8-0.9-6.6-2.6c-1.8-1.8-2.7-3.9-2.7-6.4c0-2.5,0.9-4.7,2.7-6.5C419.6,115.2,421.9,114.3,424.5,114.3z M424.5,131.3
			c2.2,0,4.1-0.8,5.6-2.3c1.5-1.5,2.3-3.4,2.3-5.6c0-2.2-0.8-4.1-2.3-5.6c-1.5-1.5-3.4-2.3-5.6-2.3c-2.2,0-4.1,0.8-5.6,2.3
			c-1.5,1.5-2.3,3.4-2.3,5.6c0,2.2,0.8,4,2.3,5.6C420.4,130.5,422.3,131.3,424.5,131.3z"/>
		<path class="st1" d="M454,114.6l-8.5,8.9l9.3,8.9H453l-9.3-8.9v8.9h-1.4v-17.7h1.4v8.8l8.5-8.8H454z"/>
		<path class="st1" d="M468.4,114.4l8.2,17.9h-1.4l-2.8-6.1h-8.7l-2.8,6.1h-1.4l8.2-17.9H468.4z M471.9,125l-3.8-8.4l-3.8,8.4H471.9
			z"/>
		<path class="st1" d="M497.5,115.8v1.5c-2.1-1.1-4.3-1.7-6.3-1.7c-2.2,0-4,0.7-5.5,2.2s-2.2,3.4-2.2,5.6c0,2.3,0.7,4.1,2.2,5.6
			s3.4,2.2,5.7,2.2c1.9,0,4-0.6,6.3-1.8v1.4c-2.1,1.1-4.2,1.7-6.3,1.7c-2.7,0-4.9-0.9-6.7-2.6c-1.8-1.7-2.7-3.9-2.7-6.5
			c0-2.6,0.9-4.8,2.8-6.5s4-2.6,6.6-2.6C493.2,114.3,495.3,114.8,497.5,115.8z"/>
		<path class="st1" d="M517,114.6l-8.5,8.9l9.3,8.9h-1.7l-9.3-8.9v8.9h-1.4v-17.7h1.4v8.8l8.5-8.8H517z"/>
		<path class="st1" d="M531.5,114.4l8.2,17.9h-1.4l-2.8-6.1h-8.7l-2.8,6.1h-1.4l8.2-17.9H531.5z M534.9,125l-3.8-8.4l-3.8,8.4H534.9
			z"/>
	</g>
	<g>
		<path d="M137.1,43.6c-1.2,0-2,0.5-2.6,1.5c-0.3,0.4-0.4,1-0.4,1.5v30.1c0,2.7-0.8,5-2.5,6.8c-1.7,1.9-3.8,2.8-6.2,2.8v-0.4
			c1.6-0.5,2.9-1.7,4-3.5s1.6-3.7,1.6-5.8v-30c0-0.8-0.3-1.5-0.9-2.1c-0.6-0.6-1.3-0.9-2.1-0.9h-0.6v-0.5h10.5v0.5H137.1z"/>
		<path d="M171.8,48.4h-0.7c-0.9,0-1.5,0.3-2,1c-0.2,0.3-0.3,0.6-0.3,1v16.2c0,3.3-1.1,6-3.2,7.9c-2.1,1.9-5,2.9-8.8,2.9
			c-3.7,0-6.6-1-8.8-2.9c-2.1-1.9-3.2-4.5-3.2-7.9V50.5c0-0.6-0.2-1.1-0.7-1.5c-0.4-0.4-1-0.6-1.6-0.6h-0.7V48h9.1v0.5h-0.7
			c-0.6,0-1.2,0.2-1.6,0.6c-0.4,0.4-0.7,0.9-0.7,1.5v15.6c0,3.1,0.8,5.6,2.4,7.3s3.8,2.7,6.7,2.7c2.9,0,5.2-0.8,7-2.5
			c1.7-1.7,2.6-4,2.6-7V50.5c0-0.6-0.3-1.1-0.7-1.5c-0.4-0.4-1-0.6-1.6-0.6h-0.7V48h8.3V48.4z"/>
		<path d="M207.6,62.4c0,4.4-1.4,8-4.2,10.5c-2.8,2.6-6.5,3.9-11.3,3.9h-16v-0.5h0.6c0.8,0,1.4-0.3,1.9-0.8c0.5-0.5,0.8-1.1,0.8-1.8
			V51c0-0.8-0.3-1.4-0.8-1.9c-0.5-0.5-1.2-0.7-1.9-0.7h-0.6V48h16c3.1,0,5.9,0.6,8.2,1.7c2.3,1.2,4.1,2.8,5.4,5
			C206.9,56.9,207.6,59.4,207.6,62.4z M182.6,49.4v25.9h9.6c3.7,0,6.6-1.2,8.7-3.5s3.2-5.5,3.2-9.5c0-4-1.1-7.2-3.2-9.5
			s-5.1-3.5-8.7-3.5H182.6z"/>
		<path d="M239.2,48.4h-0.6c-0.9,0-1.7,0.2-2.5,0.7c-0.8,0.5-1.4,1-1.9,1.8l-9.2,14v8.8c0,0.7,0.3,1.3,0.8,1.8
			c0.5,0.5,1.2,0.8,2,0.8h0.6v0.5h-9.8v-0.5h0.6c0.8,0,1.4-0.3,2-0.8c0.5-0.5,0.8-1.1,0.8-1.8v-8.9l-8.9-14
			c-1.1-1.6-2.6-2.4-4.4-2.4H208V48h11.1v0.5h-0.6c-0.6,0-1,0.2-1.3,0.6c-0.3,0.4-0.4,0.7-0.4,1c0,0.3,0,0.5,0.1,0.7l7,12.4
			l7.4-12.4c0.1-0.3,0.1-0.5,0.1-0.8c0-0.3-0.1-0.6-0.4-1c-0.3-0.4-0.7-0.6-1.4-0.6h-0.6V48h10V48.4z"/>
		<path d="M254.9,49.4v24.4c0,1,0.5,1.7,1.4,2.2c0.4,0.2,0.9,0.3,1.4,0.3h0.5v0.5h-9.9v-0.5h0.6c0.8,0,1.4-0.3,2-0.8
			c0.5-0.5,0.8-1.1,0.9-1.8V49.4h-8.7c-0.7,0-1.3,0.2-1.8,0.7c-0.4,0.5-0.6,1.1-0.6,1.7v0.8h-0.5v-5.4c0.6,0.3,1.5,0.4,2.7,0.6
			s2,0.2,2.6,0.2h15.6c2.3,0,4.1-0.3,5.4-0.8v5.4H266v-0.8c0-0.7-0.2-1.2-0.7-1.7c-0.4-0.5-1-0.7-1.7-0.7H254.9z"/>
		<path d="M295.6,76.3h0.4v0.5h-9.8v-0.5h0.4c0.6,0,1.1-0.2,1.4-0.6c0.3-0.4,0.5-0.8,0.5-1.2c0-0.4-0.1-0.7-0.2-1.1l-2.6-6.4h-12.1
			l-2.6,6.2c-0.2,0.4-0.2,0.8-0.2,1.2c0,0.4,0.2,0.8,0.5,1.2c0.3,0.4,0.8,0.6,1.4,0.6h0.4v0.5h-9.2v-0.5h0.4c0.7,0,1.4-0.2,2-0.7
			s1.3-1.2,1.7-2.1c7-15,10.7-22.8,10.9-23.5c0.5-1.3,0.8-2.2,0.9-2.7h0.4l11.9,26.2C292.8,75.4,294,76.3,295.6,76.3z M274,65.6
			h10.9l-5.4-13.2L274,65.6z"/>
		<path d="M310.6,74.8c-0.1-0.4-0.1-1.3-0.1-2.6s0.2-2.6,0.7-4.1h0.4c0,0.4,0,0.7,0,1.1c0,2,0.6,3.6,1.8,4.9
			c1.2,1.3,2.8,1.9,4.7,1.9c2,0,3.7-0.6,5-1.8s1.9-2.7,1.9-4.6s-0.6-3.3-1.9-4.5l-9.2-8.5c-1.7-1.6-2.6-3.5-2.6-5.8s0.8-4.2,2.3-5.8
			c1.5-1.6,3.6-2.4,6.2-2.4c1.2,0,2.6,0.2,4.1,0.5h1.9v5.9h-0.4c0-1.5-0.5-2.7-1.6-3.6c-1-0.9-2.4-1.3-4-1.3s-3,0.5-4.1,1.6
			c-1.1,1.1-1.7,2.4-1.7,4.1s0.6,3,1.9,4.2l9.5,8.7c1.6,1.5,2.4,3.5,2.4,6c0,2.6-0.8,4.7-2.4,6.3c-1.6,1.6-3.8,2.5-6.5,2.5
			c-1.4,0-2.9-0.2-4.5-0.6C312.7,76.4,311.5,75.7,310.6,74.8z"/>
		<path d="M341,49.2c2.5-1.3,5.2-1.9,8.1-1.9s5.7,0.6,8.1,1.9c2.5,1.3,4.4,3,5.9,5.4c1.5,2.3,2.2,4.9,2.2,7.8c0,2.9-0.7,5.5-2.2,7.8
			c-1.5,2.3-3.4,4.1-5.9,5.4c-2.5,1.3-5,1.9-7.6,1.9c-2.6,0-4.9-0.4-6.9-1.1c-2-0.7-3.7-1.8-5.2-3.1c-1.5-1.3-2.6-2.9-3.5-4.8
			c-0.8-1.9-1.3-4.1-1.3-6.6c0-2.5,0.7-5,2.2-7.3C336.5,52.2,338.5,50.4,341,49.2z M340.1,72.2c2.4,2.5,5.4,3.8,9,3.8
			c3.6,0,6.6-1.3,9-3.8s3.6-5.8,3.6-9.8c0-4-1.2-7.3-3.6-9.8s-5.4-3.8-9-3.8c-3.6,0-6.6,1.3-9,3.8c-2.4,2.5-3.6,5.8-3.6,9.8
			C336.4,66.4,337.7,69.6,340.1,72.2z"/>
		<path d="M388.6,51.9c0.5,0.9,0.7,2,0.7,3.4c0,1.3-0.5,2.5-1.6,3.6c-1.1,1.1-2.3,1.8-3.7,2.2c2.3,0.3,4.3,1.1,5.8,2.5
			c1.5,1.4,2.3,3,2.3,4.7s-0.3,3.1-1,4.2c-0.7,1.1-1.5,1.9-2.6,2.5c-2.1,1.1-4.4,1.7-7.1,1.7h-11.9v-0.5h0.6c0.8,0,1.5-0.2,2-0.7
			c0.5-0.5,0.8-1.1,0.9-1.8V51c0-1.1-0.5-1.8-1.4-2.3c-0.4-0.2-0.9-0.3-1.4-0.3h-0.6V48h9.8C384.1,48,387.2,49.3,388.6,51.9z
			 M388.7,68.7c0-4.8-3.7-7.2-11.2-7.2v-0.5c5.6,0,8.4-2,8.4-5.9c0-3.8-2.2-5.8-6.7-5.8H376v25.9h5.4c2.2,0,3.9-0.6,5.3-1.7
			C388,72.6,388.7,70.9,388.7,68.7z"/>
		<path d="M405,49.2c2.5-1.3,5.2-1.9,8.1-1.9s5.7,0.6,8.1,1.9c2.5,1.3,4.4,3,5.9,5.4c1.5,2.3,2.2,4.9,2.2,7.8c0,2.9-0.7,5.5-2.2,7.8
			c-1.5,2.3-3.4,4.1-5.9,5.4c-2.5,1.3-5,1.9-7.6,1.9c-2.6,0-4.9-0.4-6.9-1.1c-2-0.7-3.7-1.8-5.2-3.1c-1.5-1.3-2.6-2.9-3.5-4.8
			c-0.8-1.9-1.3-4.1-1.3-6.6c0-2.5,0.7-5,2.2-7.3C400.6,52.2,402.5,50.4,405,49.2z M404.1,72.2c2.4,2.5,5.4,3.8,9,3.8
			c3.6,0,6.6-1.3,9-3.8s3.6-5.8,3.6-9.8c0-4-1.2-7.3-3.6-9.8s-5.4-3.8-9-3.8c-3.6,0-6.6,1.3-9,3.8c-2.4,2.5-3.6,5.8-3.6,9.8
			C400.5,66.4,401.7,69.6,404.1,72.2z"/>
		<path d="M434.3,76.3c0.8,0,1.4-0.2,1.9-0.7s0.8-1.1,0.8-1.8V51c0-0.7-0.3-1.3-0.9-1.8c-0.6-0.5-1.2-0.8-2-0.8h-0.6V48h9.9v0.5H443
			c-0.8,0-1.4,0.3-2,0.8c-0.6,0.5-0.8,1.1-0.8,1.8v24.2h7.5c1.5,0,2.7-0.3,3.7-0.8c1-0.5,1.8-1.1,2.3-1.8c0.5-0.7,1-1.6,1.6-2.8h0.5
			l-2.6,6.9h-19.5v-0.5H434.3z"/>
		<path d="M488.4,76.3h0.4v0.5h-9.8v-0.5h0.4c0.6,0,1.1-0.2,1.4-0.6c0.3-0.4,0.5-0.8,0.5-1.2c0-0.4-0.1-0.7-0.2-1.1l-2.6-6.4h-12.1
			l-2.6,6.2c-0.2,0.4-0.2,0.8-0.2,1.2c0,0.4,0.2,0.8,0.5,1.2c0.3,0.4,0.8,0.6,1.4,0.6h0.4v0.5h-9.2v-0.5h0.4c0.7,0,1.4-0.2,2-0.7
			s1.3-1.2,1.7-2.1c7-15,10.7-22.8,10.9-23.5c0.5-1.3,0.8-2.2,0.9-2.7h0.4l11.9,26.2C485.6,75.4,486.8,76.3,488.4,76.3z M466.8,65.6
			h10.9l-5.4-13.2L466.8,65.6z"/>
		<path d="M500.5,76.3h0.5v0.5h-9.8v-0.5h0.6c0.8,0,1.4-0.3,2-0.8c0.5-0.5,0.8-1.1,0.9-1.8V51c0-0.7-0.3-1.3-0.9-1.8s-1.2-0.8-2-0.8
			h-0.6V48h9.8v0.5h-0.6c-1,0-1.8,0.4-2.4,1.2c-0.3,0.4-0.4,0.8-0.4,1.3v22.8c0,0.7,0.3,1.3,0.8,1.8C499,76,499.7,76.3,500.5,76.3z
			 M518.7,76.8h-1.8c-3.1,0-5.5-0.9-7.1-2.7l-10.6-11.6l10.3-12.1c0.4-0.4,0.4-0.9,0.2-1.3s-0.6-0.6-1.2-0.6h-0.4V48h9.8v0.5h-0.2
			c-2,0-3.5,0.6-4.7,1.7l-10.5,11.2l11.9,13c0.6,0.7,1.2,1.2,1.8,1.5c0.6,0.3,1.4,0.4,2.4,0.5V76.8z"/>
	</g>
</g>
</svg>
