<?xml version="1.0" standalone="no"?>
<!DOCTYPE svg PUBLIC "-//W3C//DTD SVG 1.1//EN" "http://www.w3.org/Graphics/SVG/1.1/DTD/svg11.dtd">
<svg xmlns="http://www.w3.org/2000/svg" xmlns:xlink="http://www.w3.org/1999/xlink" id="Warstwa_1" viewBox="0 0 85.04 85.04" width="85.04000091552734" height="85.04000091552734"><defs><style>.cls-1{fill:url(#_ŃŚÁŻž_ŪŪŻť_ūŗšŤŚŪÚ_201);}</style><linearGradient id="_ŃŚÁŻž_ŪŪŻť_ūŗšŤŚŪÚ_201" x1="9.82" y1="38.64" x2="75.22" y2="38.64" gradientUnits="userSpaceOnUse"><stop offset="0" stop-color="#ff1bc6"/><stop offset="1" stop-color="#0066a6"/></linearGradient></defs><path class="cls-1" d="M18.1,45.93l-.74,1.45-3.4,6.67-3.4-6.67-.74-1.45h1.62l.74,1.45,1.77,3.48,1.77-3.48,.74-1.45h1.62Zm18.06-6.92l1.1-2.15,5.03-9.88,5.03,9.88,1.1,2.15h-2.4l-1.1-2.15-2.63-5.15-2.63,5.15-1.1,2.15h-2.4Zm10.21-6.22l3.27-6.42,1.61-3.14h-3.51l-1.61,3.14-1.52,2.97,1.76,3.45Zm-2.34,4.53l-1.74-3.41-1.74,3.41-.02,.03,1.76,3.44,1.76-3.44-.02-.03Zm-5.82-4.53l1.76-3.45-1.52-2.97-1.61-3.14h-3.51l1.61,3.14,3.27,6.42Zm-14.77,21.26v-8.12h1.45v8.12h-1.45Zm13.8-1.44l.74,1.45h-1.62l-.74-1.45-.78-1.52-.04-.07c-.25-.42-.71-.7-1.23-.7h-1.45v3.73h-1.45v-8.12h5.13c.6,0,1.15,.24,1.54,.64,.39,.41,.64,.95,.64,1.55,0,.88-.52,1.65-1.28,1.99-.2,.09-.41,.15-.63,.17l1.16,2.31Zm-1.44-3.73c.1,0,.21-.02,.3-.07,.27-.12,.44-.38,.44-.67,0-.27-.14-.45-.22-.53-.09-.09-.27-.21-.52-.21h-3.68v1.5h3.68Zm15.71-2.95v1.45h-3.33v6.67h-1.45v-6.67h-3.33v-1.45h8.11Zm11.34,8.11h-1.62l-.74-1.45-1.77-3.48-1.77,3.48-.74,1.45h-1.62l.74-1.45,3.4-6.67,3.4,6.67,.74,1.45Zm10.92-5.87v-.05c0-.41-.34-.74-.74-.74h-3.29c-.41,0-.74,.34-.74,.74v.05c0,.41,.34,.74,.74,.74h2.92c.75,0,1.43,.33,1.89,.83,.04,.04,.06,.07,.09,.1,.36,.44,.58,1.01,.58,1.62,0,1.41-1.15,2.56-2.56,2.56h-2.54c-1.42,0-2.56-1.15-2.56-2.56h1.45c0,.61,.5,1.11,1.11,1.11h2.54c.61,0,1.12-.5,1.12-1.11s-.51-1.11-1.12-1.11h-2.92c-.59,0-1.12-.23-1.52-.62-.1-.1-.2-.22-.28-.35-.24-.35-.38-.78-.38-1.24v-.05c0-1.21,.97-2.19,2.18-2.19h3.29c1.21,0,2.19,.99,2.19,2.19v.05h-1.45Z"/></svg>